<svg width="11" height="12" viewBox="0 0 11 12" fill="none" xmlns="http://www.w3.org/2000/svg">
<path d="M6.53215 12H4.46863C4.20225 12 3.97177 11.8038 3.91477 11.5284L3.68404 10.398C3.37624 10.2553 3.08438 10.0768 2.81385 9.8658L1.77245 10.2168C1.51848 10.3025 1.24239 10.1894 1.10917 9.945L0.0751457 8.0544C-0.056609 7.80991 -0.0112169 7.50149 0.184558 7.311L0.992392 6.531C0.955655 6.17767 0.955655 5.82113 0.992392 5.4678L0.184558 4.6896C-0.0115052 4.49902 -0.0569154 4.19023 0.0751457 3.9456L1.10691 2.0538C1.24012 1.80942 1.51621 1.69628 1.77018 1.782L2.81158 2.133C2.94994 2.02449 3.09397 1.92433 3.24299 1.833C3.38604 1.74762 3.53326 1.67031 3.68404 1.6014L3.91533 0.4722C3.97206 0.196781 4.20229 0.000296636 4.46863 0H6.53215C6.79849 0.000296636 7.02872 0.196781 7.08545 0.4722L7.31901 1.602C7.47819 1.67611 7.63321 1.75985 7.7833 1.8528C7.92329 1.93849 8.05861 2.03244 8.18863 2.1342L9.2306 1.7832C9.4844 1.6978 9.76015 1.8109 9.89331 2.055L10.9251 3.9468C11.0568 4.19129 11.0114 4.49971 10.8157 4.6902L10.0078 5.4702C10.0446 5.82353 10.0446 6.18007 10.0078 6.5334L10.8157 7.3134C11.0114 7.50389 11.0568 7.81231 10.9251 8.0568L9.89331 9.9486C9.76015 10.1927 9.4844 10.3058 9.2306 10.2204L8.18863 9.8694C8.05679 9.97218 7.91977 10.0673 7.7782 10.1544C7.62957 10.2455 7.47627 10.3279 7.31901 10.401L7.08545 11.5284C7.02849 11.8036 6.79832 11.9998 6.53215 12ZM3.01736 8.5374L3.48222 8.8974C3.58701 8.97909 3.69623 9.05422 3.80932 9.1224C3.91573 9.18762 4.02529 9.2469 4.13756 9.3L4.66648 9.5454L4.92555 10.8H6.07636L6.33543 9.5448L6.86435 9.2994C7.09525 9.19163 7.31442 9.05764 7.51799 8.8998L7.98342 8.5398L9.14046 8.9298L9.71587 7.875L8.81846 7.0092L8.88196 6.402C8.90985 6.13642 8.90985 5.86838 8.88196 5.6028L8.81846 4.9956L9.71643 4.128L9.14046 3.0726L7.98342 3.4626L7.51799 3.1026C7.31435 2.94403 7.09522 2.80905 6.86435 2.7L6.33543 2.4546L6.07636 1.2H4.92555L4.66534 2.4552L4.13756 2.7C4.0252 2.75223 3.91563 2.81091 3.80932 2.8758C3.69693 2.9438 3.58828 3.01852 3.48392 3.0996L3.0185 3.4596L1.86202 3.0696L1.28548 4.128L2.18288 4.9926L2.11939 5.6004C2.0915 5.86598 2.0915 6.13402 2.11939 6.3996L2.18288 7.0068L1.28548 7.8726L1.86088 8.9274L3.01736 8.5374ZM5.49812 8.4C4.24576 8.4 3.23052 7.32548 3.23052 6C3.23052 4.67452 4.24576 3.6 5.49812 3.6C6.75049 3.6 7.76573 4.67452 7.76573 6C7.76416 7.3248 6.74984 8.39835 5.49812 8.4ZM5.49812 4.8C4.87872 4.80066 4.37446 5.32731 4.36558 5.9828C4.35671 6.6383 4.84651 7.18002 5.46563 7.19947C6.08476 7.21892 6.60405 6.7089 6.63192 6.054V6.294V6C6.63192 5.33726 6.1243 4.8 5.49812 4.8Z" fill="#2C682E"/>
</svg>
