<svg width="11" height="10" viewBox="0 0 11 10" fill="none" xmlns="http://www.w3.org/2000/svg">
<path d="M3.85 0C2.33122 0 1.1 1.24365 1.1 2.77778C1.1 4.3119 2.33122 5.55556 3.85 5.55556C5.36878 5.55556 6.6 4.3119 6.6 2.77778C6.6 1.24365 5.36878 0 3.85 0ZM2.2 2.77778C2.2 1.8573 2.93873 1.11111 3.85 1.11111C4.76127 1.11111 5.5 1.8573 5.5 2.77778C5.5 3.69825 4.76127 4.44444 3.85 4.44444C2.93873 4.44444 2.2 3.69825 2.2 2.77778Z" fill="#2C682E"/>
<path d="M8.19963 2.89904C8.0449 2.81936 7.87368 2.77781 7.7 2.77781V1.6667C8.04738 1.6667 8.38982 1.74976 8.69929 1.90914C8.73338 1.92669 8.76696 1.94512 8.8 1.96439C9.06697 2.12008 9.29895 2.33094 9.48051 2.58364C9.68455 2.86762 9.81911 3.19637 9.87318 3.54298C9.92726 3.88959 9.8993 4.24421 9.79161 4.57781C9.68392 4.91141 9.49955 5.21451 9.2536 5.46229C9.00764 5.71008 8.70709 5.89552 8.37655 6.00342C8.08241 6.09945 7.77196 6.13164 7.46545 6.09845C7.42752 6.09434 7.38964 6.08923 7.35186 6.08311C7.00909 6.02762 6.68419 5.89099 6.40372 5.68439L6.40315 5.68396L7.05157 4.78643C7.19187 4.88984 7.35444 4.9582 7.52594 4.98597C7.69743 5.01373 7.873 5.00008 8.03826 4.94613C8.20353 4.89217 8.3538 4.79946 8.47677 4.67557C8.59975 4.55168 8.69193 4.40013 8.74577 4.23334C8.79962 4.06654 8.81359 3.88924 8.78656 3.71594C8.75952 3.54264 8.69225 3.37827 8.59023 3.23628C8.48822 3.0943 8.35436 2.97873 8.19963 2.89904Z" fill="#2C682E"/>
<path d="M9.89896 10C9.89896 9.70831 9.84208 9.41948 9.73157 9.15C9.62106 8.88051 9.45909 8.63565 9.2549 8.4294C9.05071 8.22314 8.80829 8.05953 8.5415 7.94791C8.27471 7.83628 7.98877 7.77883 7.7 7.77883V6.66667C8.07514 6.66667 8.44711 6.73128 8.8 6.8573C8.85476 6.87686 8.90907 6.8979 8.96286 6.9204C9.36323 7.08792 9.72702 7.33345 10.0335 7.64298C10.3399 7.95251 10.583 8.31997 10.7488 8.72439C10.7711 8.77872 10.7919 8.83357 10.8113 8.88889C10.936 9.24535 11 9.62107 11 10H9.89896Z" fill="#2C682E"/>
<path d="M7.7 10H6.6C6.6 8.46588 5.36878 7.22222 3.85 7.22222C2.33122 7.22222 1.1 8.46588 1.1 10H0C0 7.85223 1.7237 6.11111 3.85 6.11111C5.9763 6.11111 7.7 7.85223 7.7 10Z" fill="#2C682E"/>
</svg>
